<svg xmlns="http://www.w3.org/2000/svg" version="1.1" width="1080px" height="1080px" style="shape-rendering:geometricPrecision; text-rendering:geometricPrecision; image-rendering:optimizeQuality; fill-rule:evenodd; clip-rule:evenodd" xmlns:xlink="http://www.w3.org/1999/xlink">
<g><path style="opacity:1" fill="#fefefe" d="M -0.5,-0.5 C 359.5,-0.5 719.5,-0.5 1079.5,-0.5C 1079.5,359.5 1079.5,719.5 1079.5,1079.5C 719.5,1079.5 359.5,1079.5 -0.5,1079.5C -0.5,719.5 -0.5,359.5 -0.5,-0.5 Z"/></g>
<g><path style="opacity:1" fill="#060606" d="M 436.5,28.5 C 449.004,27.5092 455.17,33.1759 455,45.5C 453.395,51.4378 449.562,54.9378 443.5,56C 429.354,57.8545 423.188,51.6878 425,37.5C 428.045,33.4057 431.878,30.4057 436.5,28.5 Z"/></g>
<g><path style="opacity:1" fill="#040404" d="M 622.5,38.5 C 640.663,37.7063 657.33,42.2063 672.5,52C 677.912,56.7412 682.579,62.0745 686.5,68C 680.085,72.2914 673.585,76.4581 667,80.5C 657.267,65.4663 643.434,59.2996 625.5,62C 611.16,66.3415 602.326,75.8415 599,90.5C 596.083,112.193 604.916,126.36 625.5,133C 637.314,135.319 648.147,133.152 658,126.5C 662.786,131.37 667.119,136.703 671,142.5C 671.507,143.996 671.007,145.163 669.5,146C 640.368,162.227 613.202,159.393 588,137.5C 572.459,119.128 568.459,98.4609 576,75.5C 585.191,55.1334 600.691,42.8001 622.5,38.5 Z"/></g>
<g><path style="opacity:1" fill="#020202" d="M 452.5,66.5 C 454.467,66.2606 456.301,66.5939 458,67.5C 463.619,94.5518 469.453,121.552 475.5,148.5C 475.182,149.647 474.516,150.481 473.5,151C 466.664,152.5 459.831,154 453,155.5C 452.228,155.355 451.561,155.022 451,154.5C 445.231,127.486 439.397,100.486 433.5,73.5C 433.608,72.5581 433.941,71.7247 434.5,71C 440.701,69.7555 446.701,68.2555 452.5,66.5 Z"/></g>
<g><path style="opacity:1" fill="#030303" d="M 377.5,87.5 C 404.906,85.2722 422.406,97.2722 430,123.5C 432.62,142.657 426.12,157.824 410.5,169C 398.203,176.769 384.869,179.769 370.5,178C 344.577,169.688 333.077,151.854 336,124.5C 342.815,104.193 356.648,91.8595 377.5,87.5 Z"/></g>
<g><path style="opacity:1" fill="#030303" d="M 714.5,96.5 C 738.194,95.4285 756.361,104.762 769,124.5C 777.304,145.506 773.137,163.673 756.5,179C 738.976,190.807 720.976,191.474 702.5,181C 677.516,164.231 672.016,142.398 686,115.5C 693.316,105.767 702.816,99.4341 714.5,96.5 Z"/></g>
<g><path style="opacity:1" fill="#fbfbfb" d="M 378.5,108.5 C 392.628,108.125 401.461,114.792 405,128.5C 407.578,145.676 400.244,155.343 383,157.5C 370.807,155.641 363.473,148.641 361,136.5C 358.909,122.112 364.742,112.778 378.5,108.5 Z"/></g>
<g><path style="opacity:1" fill="#fbfbfb" d="M 720.5,118.5 C 740.365,117.53 749.531,126.863 748,146.5C 742.054,164.892 730.22,170.392 712.5,163C 698.804,148.877 699.471,135.21 714.5,122C 716.727,121.059 718.727,119.892 720.5,118.5 Z"/></g>
<g><path style="opacity:1" fill="#030303" d="M 252.5,173.5 C 253.209,174.404 254.209,174.737 255.5,174.5C 255.5,172.167 255.5,169.833 255.5,167.5C 259.473,150.026 270.139,138.859 287.5,134C 298.076,133.192 307.409,136.192 315.5,143C 328.354,157.686 341.021,172.52 353.5,187.5C 347.392,193.061 341.059,198.394 334.5,203.5C 322.98,190.481 311.646,177.314 300.5,164C 288.75,156.61 279.583,159.11 273,171.5C 272.19,176.257 272.524,180.924 274,185.5C 284.408,199.912 295.575,213.745 307.5,227C 301.167,232.167 294.833,237.333 288.5,242.5C 276.961,229.28 265.294,216.113 253.5,203C 240.381,195.972 231.214,199.472 226,213.5C 225.477,221.13 227.811,227.797 233,233.5C 242.556,244.051 251.722,254.885 260.5,266C 254.354,271.477 248.187,276.977 242,282.5C 223.312,260.646 204.812,238.646 186.5,216.5C 192.158,211.011 197.991,205.677 204,200.5C 205.626,203.128 207.626,205.461 210,207.5C 213.077,190.835 222.577,179.668 238.5,174C 243.155,173.501 247.821,173.334 252.5,173.5 Z"/></g>
<g><path style="opacity:1" fill="#030303" d="M 807.5,137.5 C 814.17,142.18 820.503,147.346 826.5,153C 818.099,159.98 819.766,162.646 831.5,161C 852.316,166.783 862.816,180.283 863,201.5C 861.533,209.432 858.2,216.432 853,222.5C 842.325,235.339 831.491,248.006 820.5,260.5C 814.312,255.144 807.978,249.977 801.5,245C 812.667,231.167 823.833,217.333 835,203.5C 839.155,194.288 836.989,186.788 828.5,181C 820.768,176.388 813.101,176.388 805.5,181C 793.952,193.71 782.619,206.544 771.5,219.5C 764.799,214.812 758.466,209.645 752.5,204C 770.722,181.71 789.055,159.544 807.5,137.5 Z"/></g>
<g><path style="opacity:1" fill="#8c8c8c" d="M 255.5,167.5 C 255.5,169.833 255.5,172.167 255.5,174.5C 254.209,174.737 253.209,174.404 252.5,173.5C 254.06,171.844 255.06,169.844 255.5,167.5 Z"/></g>
<g><path style="opacity:1" fill="#030303" d="M 910.5,207.5 C 911.675,207.281 912.675,207.614 913.5,208.5C 918.549,214.214 923.215,220.214 927.5,226.5C 922.045,230.783 916.712,235.283 911.5,240C 915.713,245.591 920.046,251.091 924.5,256.5C 919.799,260.609 914.965,264.609 910,268.5C 904.956,263.124 900.289,257.458 896,251.5C 885.374,259.79 875.041,268.457 865,277.5C 862.914,281.667 863.247,285.667 866,289.5C 868.383,292.273 871.217,294.439 874.5,296C 871.527,301.458 868.194,306.625 864.5,311.5C 846.166,302.827 838.332,288.493 841,268.5C 843.691,262.803 847.525,257.97 852.5,254C 861.833,246.667 871.167,239.333 880.5,232C 878,228.833 875.5,225.667 873,222.5C 872.312,221.668 872.479,221.002 873.5,220.5C 878.145,217.023 882.645,213.356 887,209.5C 889.646,212.98 892.479,216.314 895.5,219.5C 901.121,216.206 906.121,212.206 910.5,207.5 Z"/></g>
<g><path style="opacity:1" fill="#050505" d="M 196.5,259.5 C 202.672,262.755 208.339,266.755 213.5,271.5C 205,283.833 196.5,296.167 188,308.5C 182.587,304.543 177.087,300.71 171.5,297C 180.081,284.6 188.414,272.1 196.5,259.5 Z"/></g>
<g><path style="opacity:1" fill="#040404" d="M 931.5,279.5 C 942.045,284.542 950.212,292.209 956,302.5C 959.826,309.152 962.826,316.152 965,323.5C 967.146,337.065 962.98,348.231 952.5,357C 935.325,366.421 917.992,375.588 900.5,384.5C 895.956,378.587 892.289,372.087 889.5,365C 891.972,362.927 894.639,361.093 897.5,359.5C 889.839,357.913 883.672,353.913 879,347.5C 872.73,338.087 870.063,327.753 871,316.5C 875.942,302.562 885.775,296.395 900.5,298C 906.584,300.127 911.751,303.627 916,308.5C 922.006,317.842 927.506,327.508 932.5,337.5C 934.187,338.568 935.854,338.401 937.5,337C 942.629,330.926 943.796,324.093 941,316.5C 936.428,307.43 929.928,300.096 921.5,294.5C 924.859,289.482 928.193,284.482 931.5,279.5 Z"/></g>
<g><path style="opacity:1" fill="#030303" d="M 134.5,296.5 C 139.375,297.936 144.042,299.936 148.5,302.5C 157.976,322.929 167.642,343.262 177.5,363.5C 184.012,349.811 190.512,336.145 197,322.5C 202.333,325.167 207.667,327.833 213,330.5C 213.667,331.5 213.667,332.5 213,333.5C 211.059,337.048 209.393,340.714 208,344.5C 199.499,363.5 190.499,382.166 181,400.5C 176.565,398.69 172.231,396.69 168,394.5C 158.59,374.015 148.923,353.681 139,333.5C 133.106,346.289 126.939,358.956 120.5,371.5C 114.682,369.09 109.015,366.423 103.5,363.5C 113.646,341.052 123.98,318.719 134.5,296.5 Z"/></g>
<g><path style="opacity:1" fill="#f9f9f9" d="M 897.5,320.5 C 902.874,319.937 907.041,321.937 910,326.5C 913.627,332.92 917.127,339.42 920.5,346C 908.773,353.406 899.606,350.906 893,338.5C 889.749,331.032 891.249,325.032 897.5,320.5 Z"/></g>
<g><path style="opacity:1" fill="#030303" d="M 947.5,376.5 C 980.375,376.538 998.042,393.038 1000.5,426C 1000.91,438.295 996.576,448.462 987.5,456.5C 982.046,451.59 977.046,446.256 972.5,440.5C 981.415,430.104 981.748,419.437 973.5,408.5C 962.675,399.666 951.342,399.166 939.5,407C 930.676,416.003 929.176,426.17 935,437.5C 938.733,441.942 943.233,445.275 948.5,447.5C 946.518,454.096 944.851,460.762 943.5,467.5C 939.089,467.797 935.089,466.631 931.5,464C 917.155,453.175 910.155,438.675 910.5,420.5C 912.018,396.655 924.351,381.988 947.5,376.5 Z"/></g>
<g><path style="opacity:1" fill="#030303" d="M 118.5,389.5 C 126.988,388.989 135.321,389.822 143.5,392C 144.428,392.388 145.095,393.055 145.5,394C 140.605,414.743 136.272,435.576 132.5,456.5C 141.754,456.29 148.254,451.957 152,443.5C 156.76,433.531 156.593,423.698 151.5,414C 156.23,409.787 161.563,406.287 167.5,403.5C 171.321,408.145 173.821,413.478 175,419.5C 176.907,439.403 171.074,456.57 157.5,471C 146.561,479.484 134.228,482.484 120.5,480C 94.1533,472.508 82.3199,455.008 85,427.5C 88.6569,408.02 99.8236,395.354 118.5,389.5 Z"/></g>
<g><path style="opacity:1" fill="#f7f7f7" d="M 117.5,412.5 C 120.5,412.5 123.5,412.5 126.5,412.5C 123.363,425.75 120.53,439.083 118,452.5C 111.451,451.987 107.117,448.32 105,441.5C 102.05,428.736 106.217,419.069 117.5,412.5 Z"/></g>
<g><path style="opacity:1" fill="#040404" d="M 990.5,462.5 C 995.833,462.5 1001.17,462.5 1006.5,462.5C 1006.5,465.5 1006.5,468.5 1006.5,471.5C 1006.5,472.833 1006.5,474.167 1006.5,475.5C 1009.71,475.81 1012.71,475.477 1015.5,474.5C 1019.83,474.5 1024.17,474.5 1028.5,474.5C 1028.98,482.826 1029.31,491.16 1029.5,499.5C 1022.46,499.326 1015.46,499.659 1008.5,500.5C 1009.35,507.799 1009.68,515.132 1009.5,522.5C 1003.17,522.5 996.833,522.5 990.5,522.5C 989.835,515.52 989.502,508.52 989.5,501.5C 975.75,501.951 962.083,503.118 948.5,505C 943.725,508.655 942.225,513.488 944,519.5C 944.851,521.592 945.518,523.592 946,525.5C 940.903,527.965 935.736,530.298 930.5,532.5C 928.295,531.115 926.795,529.115 926,526.5C 919.038,510.163 921.872,495.996 934.5,484C 938.531,481.545 942.864,479.879 947.5,479C 960.827,478 974.161,477.167 987.5,476.5C 987.5,474.833 987.5,473.167 987.5,471.5C 987.5,468.833 987.5,466.167 987.5,463.5C 988.791,463.737 989.791,463.404 990.5,462.5 Z"/></g>
<g><path style="opacity:1" fill="#848484" d="M 990.5,462.5 C 989.791,463.404 988.791,463.737 987.5,463.5C 987.5,466.167 987.5,468.833 987.5,471.5C 986.523,468.713 986.19,465.713 986.5,462.5C 987.833,462.5 989.167,462.5 990.5,462.5 Z"/></g>
<g><path style="opacity:1" fill="#888888" d="M 1006.5,471.5 C 1007.4,472.209 1007.74,473.209 1007.5,474.5C 1010.17,474.5 1012.83,474.5 1015.5,474.5C 1012.71,475.477 1009.71,475.81 1006.5,475.5C 1006.5,474.167 1006.5,472.833 1006.5,471.5 Z"/></g>
<g><path style="opacity:1" fill="#020202" d="M 116.5,538.5 C 110.021,537.509 103.354,537.176 96.5,537.5C 96.5,541.833 96.5,546.167 96.5,550.5C 90.1667,550.5 83.8333,550.5 77.5,550.5C 77.5,546.167 77.5,541.833 77.5,537.5C 71.8333,537.5 66.1667,537.5 60.5,537.5C 59.791,536.596 58.791,536.263 57.5,536.5C 57.5,528.5 57.5,520.5 57.5,512.5C 64.5,512.5 71.5,512.5 78.5,512.5C 78.5,511.167 78.5,509.833 78.5,508.5C 78.5,502.5 78.5,496.5 78.5,490.5C 84.8333,490.5 91.1667,490.5 97.5,490.5C 97.5,498.167 97.5,505.833 97.5,513.5C 111.573,513.947 125.573,513.447 139.5,512C 141.815,510.891 143.315,509.057 144,506.5C 144.667,503.167 144.667,499.833 144,496.5C 143.535,495.069 142.701,493.903 141.5,493C 146.387,490.813 151.387,488.813 156.5,487C 157.944,486.219 159.277,486.386 160.5,487.5C 171.113,525.903 156.447,542.903 116.5,538.5 Z"/></g>
<g><path style="opacity:1" fill="#bababa" d="M 78.5,508.5 C 78.5,509.833 78.5,511.167 78.5,512.5C 71.5,512.5 64.5,512.5 57.5,512.5C 63.979,511.509 70.6457,511.176 77.5,511.5C 77.2627,510.209 77.596,509.209 78.5,508.5 Z"/></g>
<g><path style="opacity:1" fill="#616161" d="M 57.5,512.5 C 57.5,520.5 57.5,528.5 57.5,536.5C 58.791,536.263 59.791,536.596 60.5,537.5C 59.1667,537.5 57.8333,537.5 56.5,537.5C 56.1739,528.983 56.5073,520.65 57.5,512.5 Z"/></g>
<g><path style="opacity:1" fill="#040404" d="M 955.5,535.5 C 974.113,533.972 989.28,540.305 1001,554.5C 1011.69,574.449 1010.69,593.782 998,612.5C 985.363,625.618 970.197,629.951 952.5,625.5C 952.167,623.833 951.833,622.167 951.5,620.5C 954.167,600.492 956.834,580.492 959.5,560.5C 949.603,561.553 943.103,566.887 940,576.5C 937.344,586.462 938.511,595.962 943.5,605C 938.955,609.29 933.955,613.123 928.5,616.5C 923.342,610.902 920.176,604.235 919,596.5C 916.372,575.817 922.539,558.317 937.5,544C 943.208,540.31 949.208,537.477 955.5,535.5 Z"/></g>
<g><path style="opacity:1" fill="#616161" d="M 116.5,538.5 C 110.167,538.5 103.833,538.5 97.5,538.5C 97.5,542.833 97.5,547.167 97.5,551.5C 90.6457,551.824 83.979,551.491 77.5,550.5C 83.8333,550.5 90.1667,550.5 96.5,550.5C 96.5,546.167 96.5,541.833 96.5,537.5C 103.354,537.176 110.021,537.509 116.5,538.5 Z"/></g>
<g><path style="opacity:1" fill="#030303" d="M 140.5,550.5 C 153.625,554.12 162.458,562.454 167,575.5C 171.881,592.427 169.881,608.427 161,623.5C 147.944,638.143 131.777,643.31 112.5,639C 94.67,631.822 84.17,618.655 81,599.5C 77.5095,582.295 82.5095,568.295 96,557.5C 100.5,563.333 105,569.167 109.5,575C 100.15,584.852 98.9833,595.685 106,607.5C 115.365,616.323 125.865,617.823 137.5,612C 150.399,603.223 152.899,592.057 145,578.5C 142.278,575.556 139.111,573.223 135.5,571.5C 135.167,570.667 134.833,569.833 134.5,569C 136.208,562.709 138.208,556.542 140.5,550.5 Z"/></g>
<g><path style="opacity:1" fill="#f6f6f6" d="M 973.5,562.5 C 981.635,563.799 986.802,568.465 989,576.5C 991.14,592.594 984.306,601.927 968.5,604.5C 970.002,590.48 971.669,576.48 973.5,562.5 Z"/></g>
<g><path style="opacity:1" fill="#030303" d="M 913.5,620.5 C 918.813,621.66 923.98,623.326 929,625.5C 939.914,644.997 951.081,664.33 962.5,683.5C 967.963,670.779 972.629,657.779 976.5,644.5C 983.013,646.087 989.346,648.254 995.5,651C 986.669,673.995 978.335,697.162 970.5,720.5C 965.225,719.698 960.225,718.031 955.5,715.5C 944.333,695.833 933.167,676.167 922,656.5C 916.352,669.939 911.185,683.605 906.5,697.5C 900.309,697.61 894.476,695.943 889,692.5C 889.353,688.422 890.353,684.422 892,680.5C 899.473,660.579 906.64,640.579 913.5,620.5 Z"/></g>
<g><path style="opacity:1" fill="#030303" d="M 175.5,636.5 C 176.496,636.414 177.329,636.748 178,637.5C 180.931,644.126 183.764,650.792 186.5,657.5C 183.478,659.011 180.478,660.511 177.5,662C 190.605,666.989 198.439,676.489 201,690.5C 202.98,713.519 192.48,724.352 169.5,723C 159.885,718.05 153.051,710.55 149,700.5C 146.333,693.833 143.667,687.167 141,680.5C 135.57,680.206 131.904,682.872 130,688.5C 129.072,697.719 131.405,706.052 137,713.5C 140.708,717.377 144.542,721.043 148.5,724.5C 144.953,729.092 141.286,733.592 137.5,738C 136.5,738.667 135.5,738.667 134.5,738C 114.524,722.219 106.024,701.719 109,676.5C 112.389,668.445 117.889,662.278 125.5,658C 142.309,650.906 158.975,643.739 175.5,636.5 Z"/></g>
<g><path style="opacity:1" fill="#f9f9f9" d="M 161.5,669.5 C 173.131,671.131 179.798,677.798 181.5,689.5C 181.673,696.328 178.34,699.994 171.5,700.5C 168.677,699.861 166.177,698.527 164,696.5C 160.209,688.96 156.709,681.293 153.5,673.5C 156.25,672.125 158.916,670.792 161.5,669.5 Z"/></g>
<g><path style="opacity:1" fill="#030303" d="M 205.5,712.5 C 219.249,719.427 226.915,730.594 228.5,746C 228.057,756.447 223.391,764.447 214.5,770C 204.667,776.5 194.833,783 185,789.5C 186.2,793.718 188.366,797.551 191.5,801C 186.596,804.906 181.43,808.406 176,811.5C 173.348,808.015 170.515,804.682 167.5,801.5C 161.663,804.918 155.996,808.584 150.5,812.5C 145.71,805.753 141.043,798.92 136.5,792C 142.56,788.31 148.227,784.143 153.5,779.5C 150.529,774.697 147.362,770.03 144,765.5C 143.018,764.241 142.685,762.908 143,761.5C 148,758.167 153,754.833 158,751.5C 161.581,756.328 164.915,761.328 168,766.5C 168.739,767.574 169.739,768.241 171,768.5C 180.823,762.015 190.656,755.515 200.5,749C 206.525,744.014 207.025,738.514 202,732.5C 199.894,730.54 197.727,728.706 195.5,727C 198.714,722.068 202.047,717.234 205.5,712.5 Z"/></g>
<g><path style="opacity:1" fill="#050505" d="M 915.5,712.5 C 921.441,715.78 927.108,719.447 932.5,723.5C 925.569,736.576 918.069,749.242 910,761.5C 904.947,759.39 900.114,756.89 895.5,754C 894.643,753.311 893.977,752.478 893.5,751.5C 901.099,738.635 908.432,725.635 915.5,712.5 Z"/></g>
<g><path style="opacity:1" fill="#040404" d="M 862.5,852.5 C 861.791,851.596 860.791,851.263 859.5,851.5C 859.5,854.5 859.5,857.5 859.5,860.5C 856.024,878.143 845.691,889.643 828.5,895C 817.438,896.423 807.772,893.423 799.5,886C 786.5,873 773.5,860 760.5,847C 766.348,840.985 772.348,835.152 778.5,829.5C 791.348,842.182 804.348,854.682 817.5,867C 829.431,871.453 837.598,867.62 842,855.5C 843.041,850.56 842.374,845.894 840,841.5C 828.196,828.696 816.03,816.196 803.5,804C 809.348,797.985 815.348,792.152 821.5,786.5C 834.348,799.182 847.348,811.682 860.5,824C 871.898,828.391 880.065,824.891 885,813.5C 886.068,808.232 885.401,803.232 883,798.5C 871.196,785.696 859.03,773.196 846.5,761C 852.348,754.985 858.348,749.152 864.5,743.5C 885.167,763.5 905.5,783.833 925.5,804.5C 920.167,810.5 914.5,816.167 908.5,821.5C 906.517,819.016 904.35,816.683 902,814.5C 900.266,833.897 890.1,846.397 871.5,852C 868.518,852.498 865.518,852.665 862.5,852.5 Z"/></g>
<g><path style="opacity:1" fill="#030303" d="M 245.5,766.5 C 251.631,772.13 257.631,777.964 263.5,784C 251.333,796.833 239.167,809.667 227,822.5C 222.028,834.571 225.528,843.405 237.5,849C 244.249,850.331 250.582,849.331 256.5,846C 268.014,834.319 279.681,822.819 291.5,811.5C 297.5,816.833 303.167,822.5 308.5,828.5C 288.849,849.318 269.015,869.985 249,890.5C 243.469,884.634 237.635,879.134 231.5,874C 233.833,871.667 236.167,869.333 238.5,867C 215.335,864.498 202.002,851.832 198.5,829C 198.577,821.008 201.077,813.841 206,807.5C 219.006,793.661 232.173,779.994 245.5,766.5 Z"/></g>
<g><path style="opacity:1" fill="#040404" d="M 317.5,846.5 C 345.265,844.29 365.098,855.624 377,880.5C 381.416,900.345 375.916,916.845 360.5,930C 342.045,941.54 323.712,941.207 305.5,929C 282.28,911.357 277.78,889.857 292,864.5C 298.466,855.522 306.966,849.522 317.5,846.5 Z"/></g>
<g><path style="opacity:1" fill="#595959" d="M 862.5,852.5 C 860.902,854.857 859.902,857.523 859.5,860.5C 859.5,857.5 859.5,854.5 859.5,851.5C 860.791,851.263 861.791,851.596 862.5,852.5 Z"/></g>
<g><path style="opacity:1" fill="#030303" d="M 729.5,857.5 C 754.098,855.04 771.264,865.04 781,887.5C 786.763,917.754 774.929,937.587 745.5,947C 718.18,952.923 699.68,942.756 690,916.5C 685.302,894.915 692.136,878.082 710.5,866C 716.687,862.568 723.021,859.734 729.5,857.5 Z"/></g>
<g><path style="opacity:1" fill="#fcfcfc" d="M 325.5,868.5 C 349.825,868.186 358.325,879.52 351,902.5C 342.858,915.989 331.691,919.155 317.5,912C 307.672,903.026 305.838,892.526 312,880.5C 315.454,875.206 319.954,871.206 325.5,868.5 Z"/></g>
<g><path style="opacity:1" fill="#fbfbfb" d="M 728.5,879.5 C 743.633,877.648 753.466,883.981 758,898.5C 760.211,918.236 751.378,927.736 731.5,927C 716.823,920.48 710.99,909.314 714,893.5C 716.832,886.684 721.665,882.017 728.5,879.5 Z"/></g>
<g><path style="opacity:1" fill="#030303" d="M 406.5,885.5 C 430.112,883.764 450.278,891.098 467,907.5C 482.67,928.501 484.67,950.834 473,974.5C 459.152,996.172 439.319,1005.67 413.5,1003C 391.289,1000.24 374.956,989.075 364.5,969.5C 370.712,965.894 377.045,962.561 383.5,959.5C 397.34,980.378 415.673,985.545 438.5,975C 455.518,959.962 458.684,942.462 448,922.5C 432.925,906.452 415.925,903.785 397,914.5C 392.785,908.569 388.951,902.402 385.5,896C 385.645,895.228 385.978,894.561 386.5,894C 392.893,890.266 399.56,887.433 406.5,885.5 Z"/></g>
<g><path style="opacity:1" fill="#040404" d="M 661.5,886.5 C 663.167,886.5 664.833,886.5 666.5,886.5C 674.908,914.055 682.908,941.722 690.5,969.5C 682.549,971.706 674.549,973.706 666.5,975.5C 658.343,947.872 650.343,920.205 642.5,892.5C 649.051,890.87 655.384,888.87 661.5,886.5 Z"/></g>
<g><path style="opacity:1" fill="#060606" d="M 682.5,983.5 C 695.043,981.899 701.543,987.232 702,999.5C 697.943,1009.76 690.443,1013.59 679.5,1011C 672.262,1007.35 669.762,1001.51 672,993.5C 674.081,988.584 677.581,985.25 682.5,983.5 Z"/></g>
</svg>
